<svg width="200" height="55" viewBox="0 0 200 55" fill="none" xmlns="http://www.w3.org/2000/svg">
<path d="M2.736 40V14.8H18.9V18.868H7.02V24.952H14.76V29.02H7.02V35.932H19.656V40H2.736ZM32.4076 40.432C27.7996 40.432 25.4956 37.744 25.4956 32.368V21.604H29.1316V32.116C29.1316 33.82 29.4916 35.068 30.2116 35.86C30.9556 36.628 31.9276 37.012 33.1276 37.012C35.9836 37.012 37.4116 35.404 37.4116 32.188V21.604H41.0476V40H37.4116V38.2C36.2596 39.688 34.5916 40.432 32.4076 40.432Z" fill="#048ABF"/>
<path d="M55.52 40.396C54.104 40.396 52.82 40.144 51.668 39.64C50.54 39.136 49.592 38.476 48.824 37.66C48.08 36.82 47.456 35.836 46.952 34.708C46.448 33.556 46.088 32.38 45.872 31.18C45.656 29.956 45.548 28.696 45.548 27.4C45.548 25.816 45.728 24.292 46.088 22.828C46.472 21.34 47.048 19.96 47.816 18.688C48.584 17.392 49.628 16.36 50.948 15.592C52.268 14.8 53.792 14.404 55.52 14.404C57.488 14.404 59.132 14.908 60.452 15.916C61.772 16.924 62.732 18.172 63.332 19.66L59.516 21.496C58.988 20.488 58.412 19.732 57.788 19.228C57.188 18.724 56.432 18.472 55.52 18.472C54.224 18.472 53.144 18.952 52.28 19.912C51.416 20.872 50.816 22 50.48 23.296C50.144 24.568 49.976 25.936 49.976 27.4C49.976 29.776 50.456 31.864 51.416 33.664C52.376 35.44 53.744 36.328 55.52 36.328C57.2 36.328 58.544 35.248 59.552 33.088L63.44 34.564C61.856 38.452 59.216 40.396 55.52 40.396ZM75.9756 40.432C73.9836 40.432 72.3636 39.904 71.1156 38.848C69.8676 37.768 69.2436 36.244 69.2436 34.276C69.2436 32.284 69.9396 30.772 71.3316 29.74C72.7476 28.708 74.4516 28.192 76.4436 28.192C78.2676 28.192 79.8636 28.552 81.2316 29.272V28.012C81.2316 25.54 79.9836 24.304 77.4876 24.304C75.5916 24.304 73.6356 24.94 71.6196 26.212L70.5396 23.26C72.7236 21.868 75.1476 21.172 77.8116 21.172C82.4196 21.172 84.7236 23.416 84.7236 27.904V40H81.2316V38.416C79.8396 39.76 78.0876 40.432 75.9756 40.432ZM76.5516 37.264C78.3276 37.264 79.8876 36.544 81.2316 35.104V32.332C79.9596 31.612 78.5436 31.252 76.9836 31.252C75.7596 31.252 74.7396 31.516 73.9236 32.044C73.1076 32.548 72.6996 33.292 72.6996 34.276C72.6996 35.188 73.0356 35.92 73.7076 36.472C74.4036 37 75.3516 37.264 76.5516 37.264ZM101.255 36.796H106.511V40H92.3632V36.796H97.6552V17.176H93.2992L91.6432 14.008H101.255V36.796ZM122.035 40.432C119.539 40.432 117.559 39.592 116.095 37.912C114.631 36.208 113.899 33.844 113.899 30.82C113.899 27.82 114.643 25.468 116.131 23.764C117.619 22.036 119.635 21.172 122.179 21.172C125.803 21.172 128.167 22.708 129.271 25.78L125.887 26.968C125.239 25.36 124.003 24.556 122.179 24.556C120.691 24.556 119.551 25.12 118.759 26.248C117.991 27.352 117.607 28.876 117.607 30.82C117.607 32.788 117.991 34.324 118.759 35.428C119.527 36.508 120.631 37.048 122.071 37.048C124.111 37.048 125.431 36.136 126.031 34.312L129.415 35.392C128.359 38.752 125.899 40.432 122.035 40.432ZM142.958 40.432C138.35 40.432 136.046 37.744 136.046 32.368V21.604H139.682V32.116C139.682 33.82 140.042 35.068 140.762 35.86C141.506 36.628 142.478 37.012 143.678 37.012C146.534 37.012 147.962 35.404 147.962 32.188V21.604H151.598V40H147.962V38.2C146.81 39.688 145.142 40.432 142.958 40.432ZM167.806 36.796H173.062V40H158.914V36.796H164.206V17.176H159.85L158.194 14.008H167.806V36.796ZM194.526 37.84C192.966 39.568 190.854 40.432 188.19 40.432C185.526 40.432 183.402 39.58 181.818 37.876C180.258 36.148 179.478 33.796 179.478 30.82C179.478 27.844 180.258 25.492 181.818 23.764C183.402 22.036 185.526 21.172 188.19 21.172C190.854 21.172 192.966 22.036 194.526 23.764C196.11 25.492 196.902 27.832 196.902 30.784C196.902 33.76 196.11 36.112 194.526 37.84ZM184.446 35.392C185.334 36.496 186.582 37.048 188.19 37.048C189.798 37.048 191.046 36.484 191.934 35.356C192.822 34.228 193.266 32.704 193.266 30.784C193.266 28.864 192.822 27.352 191.934 26.248C191.07 25.12 189.822 24.556 188.19 24.556C186.558 24.556 185.31 25.108 184.446 26.212C183.582 27.292 183.15 28.828 183.15 30.82C183.15 32.74 183.582 34.264 184.446 35.392Z" fill="#F28705"/>
</svg>
